PathFileType	4	(X/Y/Z)	./resultDataOpenSim/trcMotMarkerGrf/sub06/qtm-12-02.trc
DataRate	CameraRate	NumFrames	NumMarkers	Units	OrigDataRate	OrigDataStartFrame	OrigNumFrames
250.000000	250.000000	9	24	m	250.000000	1	482
Frame#	Time	L.Toe.Tip			R.Toe.Tip			L.Ankle.Lat			R.Ankle.Lat			L.Ankle.Med			R.Ankle.Med			L.Heel			R.Heel			L.Knee.Lat			R.Knee.Lat			L.Knee.Med			R.Knee.Med			L.Thigh.Upper			R.Thigh.Upper			L.ASIS			R.ASIS			V.Sacral			L.Acromium			R.Acromium			C7			L.Elbow			R.Elbow			L.Wrist.Lat			R.Wrist.Lat
		X1	Y1	Z1	X2	Y2	Z2	X3	Y3	Z3	X4	Y4	Z4	X5	Y5	Z5	X6	Y6	Z6	X7	Y7	Z7	X8	Y8	Z8	X9	Y9	Z9	X10	Y10	Z10	X11	Y11	Z11	X12	Y12	Z12	X13	Y13	Z13	X14	Y14	Z14	X15	Y15	Z15	X16	Y16	Z16	X17	Y17	Z17	X18	Y18	Z18	X19	Y19	Z19	X20	Y20	Z20	X21	Y21	Z21	X22	Y22	Z22	X23	Y23	Z23	X24	Y24	Z24

1	0	-1.5096395	0.031861208	-0.070506352	-0.85015098	0.12329251	0.104611	-1.6297099	0.079101634	-0.08434976	-0.98066875	0.085763058	0.11858837	-1.6209075	0.092777127	-0.00048278849	-0.96881845	0.11557497	0.034336405	NaN	NaN	NaN	-1.0122438	0.039031424	0.048133627	-1.4475217	0.40824359	-0.10847565	-1.1195443	0.44626203	0.13289218	-1.4606312	0.41564154	0.01410755	-1.1353009	0.42524447	0.0013560599	-1.3498456	0.78117888	-0.17174512	-1.2938003	0.77310578	0.17414334	-1.2607898	0.82015359	-0.13921523	-1.2193012	0.82470188	0.1040899	-1.4105805	0.9003413	0.021522491	-1.2459536	1.3017498	-0.19154938	-1.2610189	1.2938907	0.17248006	-1.3288568	1.3444004	-0.013616671	-1.2161789	0.97788428	-0.25491982	-1.4235377	1.0196344	0.22775169	-0.99274102	0.87513866	-0.21499416	-1.361704	0.79344281	0.28042779
2	0.004	-1.5096518	0.031813832	-0.070507937	-0.83942766	0.12620631	0.10418219	-1.6284712	0.080153287	-0.084840526	-0.96925966	0.086393685	0.1180869	-1.6201051	0.093783259	-0.00076004835	-0.95793726	0.11661198	0.033952837	NaN	NaN	NaN	-1.0001731	0.0392616	0.047679566	-1.4437746	0.40748844	-0.10879761	-1.1126179	0.44495992	0.13289495	-1.4556626	0.41474311	0.013714542	-1.1288332	0.4235459	0.0010129979	-1.3444068	0.77972471	-0.17163229	-1.2868027	0.77133221	0.17415065	-1.2549482	0.81847096	-0.13972353	-1.212646	0.82300042	0.10378368	-1.4060282	0.8998074	0.023565804	-1.2397174	1.3002844	-0.19113021	-1.2551348	1.292173	0.17295056	-1.3228348	1.342964	-0.013228875	-1.2080293	0.9766889	-0.25469349	-1.4183335	1.0185206	0.22743148	-0.98396076	0.87570642	-0.21378294	-1.3595949	0.79215435	0.28123396
3	0.008	-1.5096573	0.031765385	-0.070520557	-0.82900506	0.12876981	0.10374414	-1.6272182	0.081242648	-0.085356182	-0.95811545	0.086977554	0.11755357	-1.6193317	0.09477748	-0.0010960428	-0.94734324	0.11751999	0.033545997	NaN	NaN	NaN	-0.98850824	0.039442721	0.047163249	-1.4399339	0.4067255	-0.10912171	-1.1056092	0.44372592	0.13286651	-1.4507191	0.41390284	0.013330587	-1.1222717	0.42192948	0.00071129139	-1.3389084	0.77826872	-0.17150917	-1.2797124	0.76963263	0.17418867	-1.2490895	0.81681814	-0.14022848	-1.2059501	0.8213151	0.10347802	-1.4014285	0.89945062	0.025575753	-1.2334521	1.298851	-0.19070779	-1.2492306	1.2904827	0.17342595	-1.316798	1.3415251	-0.012881359	-1.1999062	0.97550858	-0.2544273	-1.4132284	1.0175027	0.22718479	-0.97522849	0.87626257	-0.21260207	-1.3575322	0.79085936	0.28202494
4	0.012	-1.5096469	0.031711231	-0.070556165	-0.81905257	0.13072661	0.1032997	-1.6260578	0.082376958	-0.085879213	-0.94748148	0.087414573	0.11697431	-1.6185661	0.095789978	-0.0015083073	-0.93720825	0.11820763	0.033103025	NaN	NaN	NaN	-0.97751981	0.03953335	0.046557219	-1.4359238	0.40596378	-0.10946159	-1.0984195	0.44262713	0.13279756	-1.4458614	0.41312581	0.012967436	-1.1155344	0.4204724	0.00046155596	-1.3333139	0.77682914	-0.17134728	-1.272458	0.76805792	0.17427512	-1.2432065	0.8152302	-0.14066848	-1.1991825	0.81967013	0.10317413	-1.3967572	0.89922133	0.027524771	-1.2271344	1.2974646	-0.19027385	-1.243273	1.2888335	0.1739155	-1.3107083	1.3400999	-0.012545594	-1.1918266	0.97435524	-0.25410542	-1.4082664	1.0166359	0.22705223	-0.96656289	0.87679361	-0.21145499	-1.3554027	0.78957823	0.28280098
5	0.016	-1.5096135	0.031648124	-0.07062413	-0.80962466	0.13198394	0.10283896	-1.62505	0.083551298	-0.086387838	-0.93755398	0.087582057	0.11634281	-1.6177295	0.096876433	-0.0019838008	-0.92760735	0.11862614	0.032615809	NaN	NaN	NaN	-0.96734702	0.039493666	0.045902928	-1.4317077	0.40521638	-0.10982737	-1.0910193	0.44168691	0.13269352	-1.4411251	0.41236264	0.012629537	-1.1085797	0.41924338	0.00024407508	-1.3276302	0.77543683	-0.17112244	-1.2650811	0.76662497	0.17440477	-1.2372958	0.81373476	-0.14099915	-1.1923431	0.81809291	0.10286987	-1.3917815	0.89889931	0.02923323	-1.22076	1.2961327	-0.18982155	-1.2372326	1.2872328	0.17442117	-1.304519	1.3387112	-0.012107416	-1.183816	0.97324138	-0.25373654	-1.4033484	1.0158881	0.22701104	-0.95800022	0.87728378	-0.21034112	-1.3530858	0.78834464	0.283569
6	0.02	-1.5095608	0.031581629	-0.070716632	-0.80072142	0.13257338	0.10235571	-1.6241134	0.084773987	-0.086895238	-0.92838859	0.087423551	0.11565741	-1.6167515	0.098070424	-0.0025113699	-0.91856431	0.11874899	0.032071902	NaN	NaN	NaN	-0.95800113	0.039279575	0.045245198	-1.4272797	0.40448092	-0.11021433	-1.0834675	0.44086854	0.1325589	-1.4364154	0.41156608	0.012303765	-1.1013693	0.41828838	5.417656e-05	-1.3218716	0.77411318	-0.17083772	-1.2576672	0.76533182	0.17456854	-1.2313346	0.81233729	-0.14123836	-1.1854596	0.81660103	0.10255781	-1.3861634	0.8983345	0.030472936	-1.2143218	1.294863	-0.18935028	-1.2310842	1.2856835	0.17494041	-1.2981966	1.3373629	-0.011467629	-1.1758875	0.97217665	-0.25333428	-1.3982542	1.015164	0.22699575	-0.94958994	0.87771974	-0.20926878	-1.3505763	0.78718202	0.28432818
7	0.024	-1.5095025	0.031523398	-0.070808718	-0.79234667	0.13256127	0.10185248	-1.6231387	0.086067516	-0.08744042	-0.91991996	0.08696817	0.11493787	-1.6156338	0.099374545	-0.0030960714	-0.91009096	0.11855885	0.031462219	NaN	NaN	NaN	-0.94938089	0.038853831	0.044561473	-1.4226516	0.40374657	-0.11060872	-1.0758336	0.44012955	0.13239544	-1.4315867	0.41074244	0.011974001	-1.0938393	0.4176205	-7.0071297e-05	-1.3160389	0.77286461	-0.17051503	-1.2502542	0.76417785	0.17476507	-1.2252952	0.81103037	-0.14142412	-1.1785626	0.81520752	0.10223158	-1.3798661	0.8975499	0.031239023	-1.2078089	1.293663	-0.18885953	-1.2248235	1.2841834	0.17547693	-1.2917605	1.3360516	-0.010671264	-1.1680415	0.97116406	-0.25290387	-1.3928425	1.0143971	0.22696166	-0.94134251	0.87809944	-0.20823452	-1.3479042	0.78610071	0.28507263
8	0.028	-1.5094461	0.031480419	-0.070883538	-0.78451752	0.1320223	0.10128136	-1.6220655	0.087452856	-0.088060283	-0.9120678	0.08626888	0.11421163	-1.6144248	0.10078389	-0.0037529161	-0.90218776	0.11805186	0.030788266	NaN	NaN	NaN	-0.94138005	0.03820408	0.043845847	-1.4178303	0.40300167	-0.11099431	-1.0681255	0.43946574	0.13220194	-1.4266031	0.4099246	0.011637919	-1.0859646	0.41722608	-0.00010123324	-1.3101253	0.77168315	-0.17017614	-1.2428872	0.76315125	0.17497424	-1.2191601	0.80980625	-0.14158305	-1.1716293	0.81392762	0.10189476	-1.3731564	0.8966273	0.031722577	-1.2012167	1.2925335	-0.18834286	-1.2184677	1.2827274	0.17603565	-1.2852698	1.3347878	-0.0098717237	-1.1602772	0.97020508	-0.25244697	-1.3871473	1.0135896	0.22691001	-0.93318898	0.87843758	-0.20720887	-1.345046	0.78510204	0.28580271
9	0.032	-1.5093845	0.031450992	-0.070944338	-0.77724636	0.1310419	0.10054521	-1.6208745	0.088931559	-0.088760935	-0.90479601	0.085357836	0.11349042	-1.6131508	0.10229291	-0.0044869573	-0.8948402	0.11723898	0.030058291	NaN	NaN	NaN	-0.93403326	0.037346081	0.043192575	-1.4128071	0.4022304	-0.11135784	-1.0603228	0.43889039	0.13196975	-1.4215248	0.40912086	0.011296657	-1.0778583	0.41707209	-7.6512223e-05	-1.3041236	0.77054416	-0.1698315	-1.2356614	0.76222365	0.17514773	-1.2129284	0.80866107	-0.14172307	-1.1645624	0.81277874	0.10157066	-1.3663095	0.89560329	0.032101861	-1.1945469	1.2914675	-0.1877893	-1.212038	1.2813126	0.17661349	-1.2787652	1.3335893	-0.009169685	-1.1526017	0.96930614	-0.25197567	-1.381283	1.0127779	0.22686222	-0.92504583	0.87875426	-0.20616272	-1.341943	0.78418119	0.28652492
